<svg width="21" height="14" viewBox="0 0 21 14" fill="none" xmlns="http://www.w3.org/2000/svg">
<g filter="url(#filter0_d)">
<path d="M10.1584 1.35979L17.3246 8.90288C17.7807 9.38271 17.7807 10.1607 17.3246 10.6403C16.8689 11.1199 16.1298 11.1199 15.6742 10.6403L9.33321 3.9658L2.99246 10.6401C2.53659 11.1197 1.79759 11.1197 1.3419 10.6401C0.886033 10.1604 0.886033 9.38251 1.3419 8.90268L8.50819 1.35959C8.73615 1.11977 9.03459 1 9.33318 1C9.63191 1 9.93058 1.12001 10.1584 1.35979Z" fill="url(#paint0_linear)"/>
<path d="M10.3396 1.18758L10.3397 1.1876L17.5058 8.73064C17.5058 8.73066 17.5058 8.73067 17.5058 8.73069C18.0536 9.30697 18.0536 10.2363 17.5058 10.8125L10.3396 1.18758ZM10.3396 1.18758C10.0641 0.89761 9.69971 0.75 9.33318 0.75C8.96684 0.75 8.60265 0.897342 8.32699 1.18736L8.32695 1.1874M10.3396 1.18758L8.32695 1.1874M9.33321 4.32877L15.4929 10.8125C16.0471 11.3958 16.9515 11.3958 17.5058 10.8126L9.33321 4.32877ZM9.33321 4.32877L3.17371 10.8123L3.17367 10.8123C2.61928 11.3956 1.71496 11.3957 1.16069 10.8123L9.33321 4.32877ZM8.32695 1.1874L1.16066 8.73049C1.16066 8.73049 1.16066 8.73049 1.16066 8.73049C0.613144 9.30678 0.613084 10.2361 1.16066 10.8123L8.32695 1.1874Z" stroke="url(#paint1_linear)" stroke-width="0.5"/>
</g>
<defs>
<filter id="filter0_d" x="0.5" y="0.5" width="19.6667" height="13" filterUnits="userSpaceOnUse" color-interpolation-filters="sRGB">
<feFlood flood-opacity="0" result="BackgroundImageFix"/>
<feColorMatrix in="SourceAlpha" type="matrix" values="0 0 0 0 0 0 0 0 0 0 0 0 0 0 0 0 0 0 127 0" result="hardAlpha"/>
<feOffset dx="1" dy="1"/>
<feGaussianBlur stdDeviation="0.5"/>
<feColorMatrix type="matrix" values="0 0 0 0 0.147813 0 0 0 0 0.169527 0 0 0 0 0.275 0 0 0 0.32 0"/>
<feBlend mode="normal" in2="BackgroundImageFix" result="effect1_dropShadow"/>
<feBlend mode="normal" in="SourceGraphic" in2="effect1_dropShadow" result="shape"/>
</filter>
<linearGradient id="paint0_linear" x1="0.942889" y1="6.67053" x2="6.97195" y2="-1.55052" gradientUnits="userSpaceOnUse">
<stop stop-color="#F47169"/>
<stop offset="1" stop-color="#FF8080"/>
</linearGradient>
<linearGradient id="paint1_linear" x1="0.942889" y1="6.67053" x2="6.97195" y2="-1.55052" gradientUnits="userSpaceOnUse">
<stop stop-color="#F47169"/>
<stop offset="1" stop-color="#FF8080"/>
</linearGradient>
</defs>
</svg>
