<svg width="17" height="26" viewBox="0 0 17 26" fill="none" xmlns="http://www.w3.org/2000/svg">
<path fill-rule="evenodd" clip-rule="evenodd" d="M8.26473 0.663716C8.4634 0.374749 8.89008 0.374749 9.08875 0.663716L16.6749 11.6975C16.8602 11.967 16.7411 12.3389 16.4338 12.4507L8.8476 15.2092C8.73723 15.2493 8.61625 15.2493 8.50588 15.2092L0.919713 12.4507C0.612344 12.3389 0.493268 11.967 0.678562 11.6975L8.26473 0.663716ZM9.07994 24.8609C8.88016 25.1333 8.47333 25.1333 8.27355 24.8609L1.44359 15.5478C1.13915 15.1327 1.58503 14.5839 2.05367 14.797L8.46985 17.7132C8.60131 17.773 8.75218 17.773 8.88364 17.7132L15.2998 14.797C15.7685 14.5839 16.2143 15.1327 15.9099 15.5478L9.07994 24.8609Z" fill="url(#paint0_linear)"/>
<defs>
<linearGradient id="paint0_linear" x1="16.7631" y1="25.0652" x2="3.23868" y2="-0.930799" gradientUnits="userSpaceOnUse">
<stop stop-color="#555FEB"/>
<stop offset="0.90625" stop-color="#727AF4"/>
</linearGradient>
</defs>
</svg>
