<svg width="18" height="18" viewBox="0 0 18 18" fill="none" xmlns="http://www.w3.org/2000/svg">
<path d="M11.9375 0.5625C10.8329 0.5625 9.9375 1.45793 9.9375 2.5625V4.1875C9.9375 5.29207 10.8329 6.1875 11.9375 6.1875H15.4375C16.5421 6.1875 17.4375 5.29207 17.4375 4.1875V2.5625C17.4375 1.45793 16.5421 0.5625 15.4375 0.5625H11.9375ZM9.9375 15.4375C9.9375 16.5421 10.8329 17.4375 11.9375 17.4375H15.4375C16.5421 17.4375 17.4375 16.5421 17.4375 15.4375V10.0625C17.4375 8.95793 16.5421 8.0625 15.4375 8.0625H11.9375C10.8329 8.0625 9.9375 8.95793 9.9375 10.0625V15.4375ZM0.5625 15.4375C0.5625 16.5421 1.45793 17.4375 2.5625 17.4375H6.0625C7.16707 17.4375 8.0625 16.5421 8.0625 15.4375V13.8125C8.0625 12.7079 7.16707 11.8125 6.0625 11.8125H2.5625C1.45793 11.8125 0.5625 12.7079 0.5625 13.8125V15.4375ZM0.5625 7.9375C0.5625 9.04207 1.45793 9.9375 2.5625 9.9375H6.0625C7.16707 9.9375 8.0625 9.04207 8.0625 7.9375V2.5625C8.0625 1.45793 7.16707 0.5625 6.0625 0.5625H2.5625C1.45793 0.5625 0.5625 1.45793 0.5625 2.5625V7.9375Z" fill="url(#paint0_linear)"/>
<defs>
<linearGradient id="paint0_linear" x1="0.5625" y1="0.5625" x2="9" y2="17.4375" gradientUnits="userSpaceOnUse">
<stop stop-color="#9299C2"/>
<stop offset="1" stop-color="#D2D6EF"/>
</linearGradient>
</defs>
</svg>
