<svg width="22" height="30" viewBox="0 0 22 30" fill="none" xmlns="http://www.w3.org/2000/svg">
<g filter="url(#filter0_ii)">
<path d="M7.90488 15.084C7.51435 15.4745 6.88119 15.4745 6.49066 15.084L4.35356 12.9469C3.96304 12.5563 3.96304 11.9232 4.35356 11.5326L7.62661 8.25959C8.01713 7.86907 8.01713 7.2359 7.62661 6.84538L7.18842 6.40719C6.55672 5.77549 7.00726 4.69556 7.9006 4.7001L13.713 4.7296C14.2613 4.73238 14.7051 5.1762 14.7079 5.72451L14.7374 11.5369C14.742 12.4303 13.662 12.8808 13.0303 12.2491L12.5921 11.8109C12.2016 11.4204 11.5684 11.4204 11.1779 11.8109L7.90488 15.084Z" fill="url(#paint0_linear)"/>
</g>
<g filter="url(#filter1_ii)">
<path d="M14.0951 14.9161C14.4856 14.5256 15.1188 14.5256 15.5093 14.9161L17.6464 17.0532C18.037 17.4437 18.037 18.0769 17.6464 18.4674L14.3734 21.7405C13.9829 22.131 13.9829 22.7642 14.3734 23.1547L14.8116 23.5929C15.4433 24.2246 14.9927 25.3045 14.0994 25.3L8.287 25.2705C7.73868 25.2677 7.29487 24.8239 7.29209 24.2755L7.26258 18.4632C7.25805 17.5698 8.33798 17.1193 8.96968 17.751L9.40786 18.1892C9.79839 18.5797 10.4316 18.5797 10.8221 18.1892L14.0951 14.9161Z" fill="url(#paint1_linear)"/>
</g>
<defs>
<filter id="filter0_ii" x="1.79263" y="1.39301" width="17.2519" height="17.2519" filterUnits="userSpaceOnUse" color-interpolation-filters="sRGB">
<feFlood flood-opacity="0" result="BackgroundImageFix"/>
<feBlend mode="normal" in="SourceGraphic" in2="BackgroundImageFix" result="shape"/>
<feColorMatrix in="SourceAlpha" type="matrix" values="0 0 0 0 0 0 0 0 0 0 0 0 0 0 0 0 0 0 127 0" result="hardAlpha"/>
<feOffset dx="1" dy="1"/>
<feGaussianBlur stdDeviation="1.5"/>
<feComposite in2="hardAlpha" operator="arithmetic" k2="-1" k3="1"/>
<feColorMatrix type="matrix" values="0 0 0 0 0.147813 0 0 0 0 0.169527 0 0 0 0 0.275 0 0 0 0.64 0"/>
<feBlend mode="normal" in2="shape" result="effect1_innerShadow"/>
<feColorMatrix in="SourceAlpha" type="matrix" values="0 0 0 0 0 0 0 0 0 0 0 0 0 0 0 0 0 0 127 0" result="hardAlpha"/>
<feOffset dx="0.5" dy="0.5"/>
<feGaussianBlur stdDeviation="0.25"/>
<feComposite in2="hardAlpha" operator="arithmetic" k2="-1" k3="1"/>
<feColorMatrix type="matrix" values="0 0 0 0 0.0577257 0 0 0 0 0.0724103 0 0 0 0 0.145833 0 0 0 0.15 0"/>
<feBlend mode="normal" in2="effect1_innerShadow" result="effect2_innerShadow"/>
</filter>
<filter id="filter1_ii" x="3.95549" y="12.3552" width="17.2519" height="17.2519" filterUnits="userSpaceOnUse" color-interpolation-filters="sRGB">
<feFlood flood-opacity="0" result="BackgroundImageFix"/>
<feBlend mode="normal" in="SourceGraphic" in2="BackgroundImageFix" result="shape"/>
<feColorMatrix in="SourceAlpha" type="matrix" values="0 0 0 0 0 0 0 0 0 0 0 0 0 0 0 0 0 0 127 0" result="hardAlpha"/>
<feOffset dx="1" dy="1"/>
<feGaussianBlur stdDeviation="1.5"/>
<feComposite in2="hardAlpha" operator="arithmetic" k2="-1" k3="1"/>
<feColorMatrix type="matrix" values="0 0 0 0 0.147813 0 0 0 0 0.169527 0 0 0 0 0.275 0 0 0 0.64 0"/>
<feBlend mode="normal" in2="shape" result="effect1_innerShadow"/>
<feColorMatrix in="SourceAlpha" type="matrix" values="0 0 0 0 0 0 0 0 0 0 0 0 0 0 0 0 0 0 127 0" result="hardAlpha"/>
<feOffset dx="0.5" dy="0.5"/>
<feGaussianBlur stdDeviation="0.25"/>
<feComposite in2="hardAlpha" operator="arithmetic" k2="-1" k3="1"/>
<feColorMatrix type="matrix" values="0 0 0 0 0.0577257 0 0 0 0 0.0724103 0 0 0 0 0.145833 0 0 0 0.15 0"/>
<feBlend mode="normal" in2="effect1_innerShadow" result="effect2_innerShadow"/>
</filter>
<linearGradient id="paint0_linear" x1="5.93771" y1="14.531" x2="10.0625" y2="0.0942384" gradientUnits="userSpaceOnUse">
<stop stop-color="#D2D6EF"/>
<stop offset="1" stop-color="#9299C2"/>
</linearGradient>
<linearGradient id="paint1_linear" x1="16.0623" y1="15.4691" x2="11.9375" y2="29.9058" gradientUnits="userSpaceOnUse">
<stop stop-color="#D2D6EF"/>
<stop offset="1" stop-color="#9299C2"/>
</linearGradient>
</defs>
</svg>
