<svg width="18" height="18" viewBox="0 0 18 18" fill="none" xmlns="http://www.w3.org/2000/svg">
<g filter="url(#filter0_ii)">
<path d="M16.5 14.625C17.0178 14.625 17.4375 15.0447 17.4375 15.5625C17.4375 16.0598 17.24 16.5367 16.8883 16.8883C16.5367 17.24 16.0598 17.4375 15.5625 17.4375H2.4375C1.39687 17.4375 0.5625 16.5938 0.5625 15.5625V2.4375C0.5625 1.94022 0.760044 1.46331 1.11167 1.11167C1.46331 0.760044 1.94022 0.5625 2.4375 0.5625H15.5625C16.0598 0.5625 16.5367 0.760044 16.8883 1.11167C17.24 1.46331 17.4375 1.94022 17.4375 2.4375C17.4375 2.95527 17.0178 3.375 16.5 3.375H9C7.95937 3.375 7.125 4.21875 7.125 5.25V12.75C7.125 13.2473 7.32254 13.7242 7.67418 14.0758C8.02581 14.4275 8.50272 14.625 9 14.625H16.5ZM9 10.75C9 11.8546 9.89543 12.75 11 12.75H15.4375C16.5421 12.75 17.4375 11.8546 17.4375 10.75V7.25C17.4375 6.14543 16.5421 5.25 15.4375 5.25H11C9.89543 5.25 9 6.14543 9 7.25V10.75ZM12.75 10.4062C12.377 10.4062 12.0194 10.2581 11.7556 9.99437C11.4919 9.73065 11.3438 9.37296 11.3438 9C11.3438 8.62704 11.4919 8.26935 11.7556 8.00563C12.0194 7.74191 12.377 7.59375 12.75 7.59375C13.123 7.59375 13.4806 7.74191 13.7444 8.00563C14.0081 8.26935 14.1562 8.62704 14.1562 9C14.1562 9.37296 14.0081 9.73065 13.7444 9.99437C13.4806 10.2581 13.123 10.4062 12.75 10.4062Z" fill="url(#paint0_linear)"/>
</g>
<defs>
<filter id="filter0_ii" x="0.5625" y="0.5625" width="17.875" height="17.875" filterUnits="userSpaceOnUse" color-interpolation-filters="sRGB">
<feFlood flood-opacity="0" result="BackgroundImageFix"/>
<feBlend mode="normal" in="SourceGraphic" in2="BackgroundImageFix" result="shape"/>
<feColorMatrix in="SourceAlpha" type="matrix" values="0 0 0 0 0 0 0 0 0 0 0 0 0 0 0 0 0 0 127 0" result="hardAlpha"/>
<feOffset dx="1" dy="1"/>
<feGaussianBlur stdDeviation="1.5"/>
<feComposite in2="hardAlpha" operator="arithmetic" k2="-1" k3="1"/>
<feColorMatrix type="matrix" values="0 0 0 0 0.147813 0 0 0 0 0.169527 0 0 0 0 0.275 0 0 0 0.64 0"/>
<feBlend mode="normal" in2="shape" result="effect1_innerShadow"/>
<feColorMatrix in="SourceAlpha" type="matrix" values="0 0 0 0 0 0 0 0 0 0 0 0 0 0 0 0 0 0 127 0" result="hardAlpha"/>
<feOffset dx="0.5" dy="0.5"/>
<feGaussianBlur stdDeviation="0.25"/>
<feComposite in2="hardAlpha" operator="arithmetic" k2="-1" k3="1"/>
<feColorMatrix type="matrix" values="0 0 0 0 0.0577257 0 0 0 0 0.0724103 0 0 0 0 0.145833 0 0 0 0.15 0"/>
<feBlend mode="normal" in2="effect1_innerShadow" result="effect2_innerShadow"/>
</filter>
<linearGradient id="paint0_linear" x1="9.9375" y1="17.4375" x2="0.562501" y2="0.5625" gradientUnits="userSpaceOnUse">
<stop stop-color="#D2D6EF"/>
<stop offset="1" stop-color="#9299C2"/>
</linearGradient>
</defs>
</svg>
