<svg width="20" height="22" viewBox="0 0 20 22" fill="none" xmlns="http://www.w3.org/2000/svg">
<path d="M17.7227 13.3332C16.9896 12.8942 16.164 12.7669 15.3462 12.7373C14.66 12.7124 13.6364 12.2564 13.6364 10.9617C13.6364 9.99714 14.3902 9.22083 15.3465 9.1862C16.1642 9.15657 16.9898 9.02915 17.7227 8.59021C18.3811 8.19594 18.9279 7.62885 19.308 6.94595C19.6881 6.26304 19.8882 5.48838 19.8882 4.69983C19.8882 3.91128 19.6881 3.13663 19.3079 2.45372C18.9278 1.77082 18.3811 1.20374 17.7227 0.809477C17.0643 0.415212 16.3175 0.207656 15.5572 0.207672C14.797 0.207688 14.0501 0.415274 13.3918 0.809567C12.7334 1.20386 12.1867 1.77096 11.8066 2.45388C11.4265 3.1368 11.2264 3.91146 11.2264 4.70001C11.2264 5.57037 11.5248 6.37131 11.9056 7.11417C12.2259 7.73897 12.388 8.8986 11.2895 9.55639C10.4724 10.0457 9.45257 9.73589 8.94319 8.89031C8.51292 8.17611 7.99352 7.50693 7.26632 7.07137C6.60795 6.6771 5.86111 6.46953 5.10088 6.46953C4.34065 6.46953 3.59381 6.67709 2.93544 7.07136C2.27706 7.46563 1.73033 8.03271 1.35022 8.71561C0.970103 9.39851 0.769989 10.1732 0.769989 10.9617C0.769989 11.7502 0.970103 12.5249 1.35022 13.2078C1.73033 13.8907 2.27706 14.4578 2.93544 14.852C3.59381 15.2463 4.34065 15.4539 5.10088 15.4539C5.86111 15.4539 6.60795 15.2463 7.26632 14.852C7.99331 14.4166 8.51276 13.7479 8.94276 13.0341C9.29585 12.448 10.1777 11.7009 11.2895 12.3672C12.1053 12.8561 12.3576 13.9274 11.9053 14.8098C11.5245 15.5526 11.2265 16.3533 11.2265 17.2235C11.2265 18.0121 11.4266 18.7867 11.8067 19.4696C12.1868 20.1525 12.7335 20.7196 13.3919 21.1138C14.0502 21.5081 14.7971 21.7157 15.5573 21.7157C16.3175 21.7157 17.0643 21.5081 17.7227 21.1138C18.3811 20.7196 18.9278 20.1525 19.3079 19.4696C19.688 18.7867 19.8881 18.0121 19.8881 17.2235C19.8881 16.435 19.688 15.6604 19.3079 14.9775C18.9278 14.2946 18.3811 13.7275 17.7227 13.3332Z" fill="url(#paint0_linear_19:61)"/>
<defs>
<linearGradient id="paint0_linear_19:61" x1="11.3912" y1="21.7157" x2="-1.25878" y2="1.47565" gradientUnits="userSpaceOnUse">
<stop stop-color="#D2D6EF"/>
<stop offset="1" stop-color="#9299C2"/>
</linearGradient>
</defs>
</svg>
